# xmcd
#
# Track frame offsets: 
#        150
#        18411
#        39337
#        61156
#        82523
#        109363
#        132508
#        156708
#        185693
#        207599
#
# Disc length: 3073 seconds
#
# Revision: 1
# Processed by: cddbd v1.5.2PL0 Copyright (c) Steve Scherf et al.
# Submitted via: ExactAudioCopy v0.95b4
#
DISCID=890bff0a
DTITLE=Various Artist - Beginners Guide To Salsa Vol 2 1
DYEAR=2006
DGENRE=Salsa
TTITLE0=Gambino Pampini - Mami Me Gusto
TTITLE1=Africando - Grog Moin
TTITLE2=Luis Centeno Y Su Orquesta Melaza - Huracan
TTITLE3=Mercadonegro - Yo Soy El Son
TTITLE4=Casa Latina Allstars Feat. Omar Puente - El Suavito
TTITLE5=Grupo X - J's Joint
TTITLE6=Luisito Rosario - Son Pa' Puerto Rico
TTITLE7=Wayne Gorbea and Salsa Picante - Son Picante
TTITLE8=Jimmy Bosch - Cocosito
TTITLE9=Jimmy Le M and La Clave De Londres - Temperatura
EXTD=YEAR: 2006
EXTT0=
EXTT1=
EXTT2=
EXTT3=
EXTT4=
EXTT5=
EXTT6=
EXTT7=
EXTT8=
EXTT9=
PLAYORDER=
